<svg version="1" xmlns="http://www.w3.org/2000/svg" width="2034.667" height="2034.667" viewBox="0 0 1526.000000 1526.000000"><path d="M3.2 491.6c-3 2.1-2.8 6.1.7 12.8 3.5 6.6 3.7 6.9 12.1 15.4 6.5 6.6 9.7 9.3 14.9 12.2 1.4.8 2.8 1.7 3.1 2 1.1 1.1 15.3 6.2 26.5 9.5 5 1.5 11.3 3.4 14 4.3 2.8.9 5.5 1.7 6 1.8 5.2 1.3 25.8 7.4 26.5 7.9.6.4 2 .8 3.3 1.1 2.9.5 15.4 4.1 34.7 9.8 8.5 2.6 16.4 4.9 17.5 5.1 1.1.3 4.9 1.4 8.5 2.4 15.2 4.6 21.6 6.4 22.7 6.4.7 0 1 .3.8.7-.3.4-1.7.6-3.2.4-1.6-.2-7.1-.6-12.3-.9-5.2-.3-13.1-.7-17.5-1-29.5-1.9-84.8-2.5-86.8-1-7.2 5.2 9.3 23.6 31.8 35.7 5.7 3 18.5 7.5 24 8.4 2.1.3 4.7.8 5.9 1 1.1.2 3.9.7 6.1.9 2.2.3 5.1.7 6.5 1 1.4.3 4.6.7 7.1 1 2.5.3 8.3 1.2 12.8 2 4.6.8 8.6 1.4 8.9 1.4.4-.1.9 0 1.2.1.9.3 4.4.9 8.5 1.5 2.2.3 5.4.8 7 1.1 3.4.6 7.4 1.2 9.3 1.3.6.1 1.2.5 1.2.9 0 .5-.6.9-1.2.9-2.6 0-15.5 1.4-17.8 1.8-1.4.3-4.5.7-7 1-2.5.3-6.3 1-8.5 1.6-2.2.6-4.8 1.3-5.7 1.4-3.5.7-7.9 4-8.5 6.4-.3 1.4.1 3.7 1.1 5.5 1.8 3.3 7.2 9.6 8.1 9.6.4 0 2.3 1.3 4.3 2.9 8 6.3 20.9 11.8 30.2 12.9 3 .4 29.8.6 59.5.6l54-.1-9 1.8c-5 1-10.6 2.1-12.5 2.4-1.9.3-4.2.7-5 1-.8.2-2.7.7-4.2 1-1.6.3-4 .7-5.5 1-1.6.3-3.6.8-4.5 1.1-1 .3-3 .7-4.5 1-4.7.8-17.6 4.2-22.1 5.8-2.3.8-4.2 1.3-4.2 1.1 0-.2-2.1.8-4.7 2.4-4.3 2.5-4.8 3.2-4.6 6.1.3 6.8 19.7 21.2 35.3 26.3 9.6 3.2 14.6 3.5 35.5 2.3 7.2-.4 16.8-.9 21.5-1.1 4.7-.3 11.5-.7 15.3-1 3.7-.2 6.7-.3 6.7-.1 0 .2-3.9 1.6-8.7 3-4.9 1.5-9.6 3.1-10.5 3.6-1 .6-2.2 1-2.7 1s-2.2.5-3.8 1.2c-1.5.6-3.2 1.2-3.8 1.2-.5.1-1.1.9-1.3 1.8-.4 2 4.5 5 23.3 14.3 20.6 10.1 24.9 10.7 41.8 5.6 5.3-1.6 9.7-2.8 9.7-2.7 0 .2-2.2 1.7-5 3.4-2.7 1.7-5 3.8-5 4.5 0 3 15.5 13.3 27.8 18.5 7.8 3.4 17.8 4.7 23.5 3.2 1.7-.5 4.8-1.2 6.7-1.5 1.9-.3 5.1-1 7-1.5 1.9-.5 4.6-1.1 6-1.4 1.4-.2 3.2-.7 4-1 .8-.3 2.6-.8 4-1 3.5-.7 5.5-1.2 13.3-3.4 3.7-1.1 6.7-1.8 6.7-1.6 0 .2-1.7 1.4-3.8 2.8-2 1.3-5.4 4-7.5 6.1-6.1 6.1-3.6 7.9 16.8 12 13.4 2.8 16.9 2.7 25.9-.6 9.5-3.5 25.2-9.6 28.1-10.9 1.1-.5 4.7-1.8 8-3l6-2.1-4 3.3c-5.5 4.7-14.5 13.6-14.5 14.5.1 2.9 6.2 6.7 15.5 9.8 11 3.6 15.4 3.3 26-1.5 4-1.8 14.5-6 15-6 .6 0-.9 2-3.8 4.9-1.1 1.1-1.7 2.9-1.5 4.2.2 2 1.2 2.6 5.8 3.6 5.7 1.3 13.9 2.3 20.2 2.7 2 .1 4 .4 4.3.7.5.5-19.2 8.7-22.5 9.3-.8.2-3.7 1.3-6.3 2.4-2.7 1.2-5.3 2.2-5.8 2.2s-1.7.4-2.7.9c-1.4.8-3.9 1.8-6.2 2.6-.3.1-2.7 1.1-5.3 2.3-2.7 1.2-5.4 2.2-6.1 2.2-.7 0-1.6.4-2.1.9-.6.4-5.3 2.5-10.5 4.6-5.2 2.1-11.5 4.7-14 5.8-2.5 1.1-4.7 2.1-5 2.1-.9.2-7.5 2.9-14 5.9-3.6 1.6-6.9 3-7.5 3.2-1.3.3-5.4 2-10.9 4.5-2.5 1.1-4.7 2-4.9 2-.3 0-2.5.9-5.1 2-2.5 1.2-4.9 2.1-5.3 2.2-.5 0-1.7.7-2.8 1.4-1.1.8-2.7 1.4-3.7 1.4s-1.8.5-1.8 1.2c0 .6-.3.9-.6.6-.5-.5-3.4.6-16.9 6.7-1.6.7-7.9 3.4-14 6-6 2.6-13.4 5.8-16.3 7.1-2.9 1.3-5.5 2.4-5.7 2.4-.3 0-3.5 1.4-7.2 3.1-10.1 4.6-17.5 7.8-19.3 8.4-.3.1-3.2 1.4-6.5 2.9s-6.4 2.9-7 3c-.5.2-3.2 1.3-6 2.6-2.7 1.3-5.2 2.4-5.5 2.4-.3.1-2.1.9-4 1.8s-9.3 4.2-16.5 7.3c-7.1 3.1-14.8 6.5-17 7.5-2.2 1-10.7 4.8-19 8.5-16.8 7.5-19.9 8.9-30.5 13.8-4.1 1.9-10.2 4.7-13.5 6.2-3.3 1.5-8.7 4-12.1 5.6-3.3 1.6-6.6 2.9-7.2 2.9-.7 0-1.2.4-1.2 1 0 .5-.5 1-1.1 1-2.3 0-20.4 9-26.7 13.3-5 3.3-6 5.1-4.1 7.3 1.5 1.8 9.5 1.7 16.9-.2 5.8-1.5 33.7-10.2 36.5-11.4 2.3-1 15.2-5.1 17.5-5.5.8-.2 1.6-.4 1.8-.5.1-.2.5-.3 1-.4.4-.1 2.1-.6 3.7-1.3 1.7-.6 8.4-2.8 15-4.8s13.4-4.2 15-4.8c1.7-.7 3.2-1.2 3.5-1.3.4 0 6.7-1.9 10-2.9.3-.1 1.2-.4 2-.8 1.6-.6 34.1-11 35-11.2.8-.1 20.8-6.5 33.5-10.7 6.6-2.2 12.7-4.1 13.6-4.3.9-.2 3.9-1.1 6.5-2 2.7-.9 5.4-1.8 5.9-1.9.6-.1 4.2-1.3 8-2.5 3.9-1.2 11.2-3.6 16.3-5.2 20.7-6.5 28.7-9 38-12 16.9-5.4 62.6-19.3 70.2-21.4 28.1-7.8 29.8-8.3 36.1-9.1 3.9-.5 4.7-.3 5.3 1.2.4 1.1.2 2-.4 2.2-.6.2-1.9 1.2-2.8 2.1-.9.9-4.2 3.7-7.2 6.1-3 2.5-6 4.9-6.6 5.5-.6.5-3 2.6-5.4 4.5-2.4 1.9-4.8 4-5.4 4.5-.6.6-6 5.1-12.1 10-6 4.9-11.2 9.2-11.5 9.5-.3.3-4.1 3.5-8.5 7s-8.2 6.7-8.5 7c-.3.3-7 5.9-15 12.5-7.9 6.5-15 12.3-15.7 12.9-.7.6-1.8 1.6-2.5 2.1-.7.6-5.1 4.2-9.8 8-4.7 3.9-9.4 7.7-10.5 8.6-1.1 1-4.1 3.4-6.6 5.5-2.5 2.2-6.5 5.5-8.9 7.4-2.3 1.9-4.8 4-5.4 4.5-.6.6-5.8 4.9-11.6 9.7-16.6 13.6-19.6 17.1-15.2 18 1.7.4 3.8-.3 11.7-3.7 2.2-1 4.6-1.9 5.4-2.1.8-.1 1.7-.7 2-1.1.3-.5 4-2.6 8.1-4.7 4.1-2.2 9.8-5.1 12.5-6.6 2.8-1.5 7.9-4.3 11.5-6.1 3.6-1.9 6.7-3.6 7-3.9.3-.3 3.9-2.3 8-4.4 4.1-2.2 10.4-5.6 14-7.6 3.6-2 9.4-5.3 13-7.2 3.6-1.9 8.1-4.4 10-5.5 1.9-1.1 11.2-6.2 20.5-11.4 9.4-5.1 17.2-9.7 17.3-10.1.2-.5.9-.8 1.5-.8.7 0 5-2.3 9.6-5 4.6-2.8 8.6-5 8.7-5 .2 0 6.1-3.3 13.1-7.3 7.1-4.1 14.8-8.5 17.3-9.9 2.5-1.4 6.9-3.9 9.8-5.6 2.8-1.7 5.2-3 5.2-2.8 0 .1 2.6-.1 5.7-.5 4.9-.7 6.1-.5 7.8 1.1 3.4 3.1 10.8 2.7 16.5-.9 3-1.9 4.5-3.6 6.4-7.7l1.5-3.1 9.3.3c5.1.2 13.4.3 18.5.3l9.2.1-1.7 4.2c-1 2.4-1.7 4.9-1.6 5.5.1.7.2 2 .3 2.8 0 .9 1.3 2.7 2.8 4.1 2.5 2.3 3.4 2.5 9 2.1 4.4-.4 6.5-.1 7.3.8.6.7 2.6 2.1 4.6 3 3.2 1.5 3.8 1.5 9.2 0 3.2-.9 7.2-2.9 8.8-4.3 2.4-2.2 3.8-2.7 7.9-2.6 10.5.3 19.5-7.2 19.5-16.2 0-4.8.3-5.1 5.6-6 5.5-.8 24.6-5.9 32.9-8.7 17.6-6 36.2-15.1 49.4-23.9 7.9-5.4 7.6-5.2 17.1-13l6.5-5.4 2.3 2.2c2.1 2 4.2 2.6 15.2 4 1.9.3 4.6.7 6 1.1 1.4.3 5.8.7 9.8.8 6.2.2 7.5-.1 8.7-1.8.7-1 1.2-2.4 1-3.1-.6-1.6-1.3-8.6-1-8.6.2 0 1.7 2.2 3.4 4.9 6 9.8 8.2 11.3 16.9 11.7 5.5.2 13.2-1.3 13.2-2.5 0-.4.6-1.5 1.3-2.6 1.3-1.7 1.6-1.6 5.6 2.3 3.4 3.3 5 4.1 8.9 4.4 8 .8 18 .2 19.5-1.1 2.3-1.8 1.4-8.2-2.6-20-2-5.7-3.2-10-2.8-9.5.5.5 5 6.4 10.1 13.2 8.3 11.1 11.9 14.5 17 16.1.8.2 6.2.5 12 .6 9.8.3 13.6-.4 15.1-2.8.4-.5 2 0 3.8 1.4 2.6 1.9 4.2 2.3 9.9 2.1 6.5-.1 15.6-.9 19.7-1.7 1.1-.2 2.7-.4 3.6-.4.9-.1 2.1-1.1 2.6-2.4 1.1-2.4-.3-6.4-4.4-12.4-3.6-5.2-3.7-5.7-.2-3.3 1.9 1.3 3.6 2.7 3.9 3 1.3 1.4 7 5 8 5 .5 0 1 .3 1 .8 0 1 10.7 5.5 16.5 6.8 3.3.8 27 .3 27-.6 0 0 2-.2 4.5-.4 5.6-.4 9-2.1 9-4.5 0-1.6-3.3-6.8-5.2-8.1-1.4-1.1-23.3-22.7-24.8-24.5-.9-1.2.2-.7 3 1.1 2.5 1.7 5.2 3.4 6 3.7.8.4 3.5 1.9 6 3.3 7.6 4.4 15.7 8.4 16.9 8.4.6 0 1.1.4 1.1 1 0 .5.4 1 1 1 .5 0 3.3 1.1 6.2 2.4 2.9 1.3 7.8 3.5 10.8 4.9 3 1.3 9.8 4 15 5.8 8.3 2.9 10.8 3.4 20 3.5 10.1 0 27.7-2.3 33-4.4 1.4-.5 2.9-1 3.4-1 1.7 0 2.7-3.1 1.5-4.9-.6-1-4.9-3.6-9.5-5.7-4.7-2.2-8.8-4.4-9.1-4.9-.3-.5.5-.3 1.8.4s2.6 1.2 2.9 1.2c.6-.1 2.7.6 5.5 1.6 5.4 2.1 12.7 4.4 18.7 6 7.6 2.1 22.2 2.1 30.3.2 2.8-.7 5.7-1.4 6.5-1.6.8-.2 3.5-1.1 6-2 2.5-.9 5.3-1.8 6.2-2 3.6-.8 9.8-4.9 9.8-6.6 0-2.6-17.6-16.9-20.9-16.9-.5 0-1.1-.3-1.3-.8-.2-.4-2.8-2-5.8-3.5-3-1.6-6.8-4-8.5-5.3l-3-2.4 4 1.2c2.2.7 4.2 1.5 4.5 1.9.3.4 1.7 1 3 1.2 1.4.2 3.2.7 4 1 4 1.6 18.5 5.9 20 5.9.3 0 1.6.5 3 1 2.4.9 4 1.3 15.8 3.8 16 3.5 24.5 4.4 38.7 4.3 12.8-.1 20.8-1.9 31.3-7 8.5-4.1 11.5-6.8 10.6-9.6-.8-2.6-3.6-5.7-5.1-5.7-.7 0-1.3-.4-1.3-.8s-1.5-1.4-3.2-2.1c-7.7-3.1-13.4-5.2-15.3-5.6-1.1-.2-6.4-1.9-11.8-3.9-9.7-3.4-13.6-5.3-8.7-4.2 1.4.3 5.4.8 9 1.1 3.6.4 7.9.8 9.5 1 19.1 2.2 51 2.1 54.7-.1.5-.3 1.8-.7 3-.9 7.8-1.5 18.8-9.5 18.2-13.3-.1-.6-.2-1.6-.3-2.1-.1-.8-6.2-4-11.1-5.9-2-.7-1.4-.9 3.5-1.1 12.1-.4 20.3-1.6 30-4.2 3.9-1.1 7.7-2.1 8.5-2.3.9-.2 3.1-1.3 5-2.5 1.9-1.1 4.2-2.4 5-2.8 1.6-.7 13-10.2 14.3-11.8 2.2-3 2-5.9-.8-8.1-2.6-2.1-9.2-4.5-13.9-5-1.2-.1-2.1-.3-2.1-.4 0-.4-10.5-1.8-19.5-2.5-7-.5-19.5-1.6-24-2-1.9-.2-4.8-.6-6.5-.9-1.6-.3-5.2-.8-8-1.2-2.7-.3-5.9-.8-7-1-1.1-.3-4.2-.7-7-1-2.7-.3-5.4-.8-5.8-1.1-.4-.3-2.7-.7-5-.9-2.3-.3-5.3-.7-6.7-1-1.4-.3-3.6-.7-5-.9-4.1-.6-13.3-2.2-17-3-1.3-.2-4.2-.7-6.5-1-3.5-.5-8-1.3-16.5-3-1.4-.3-4.1-.8-6-1.1-1.9-.3-4.2-.7-5-.9-.8-.2-3.1-.7-5-1-1.9-.3-7.3-1.3-12-2.1-10.8-2-12-2.3-15-2.9-1.4-.3-5.9-1.2-10-2s-8.4-1.7-9.5-1.9c-1.1-.2-8.7-1.8-17-3.6-8.2-1.7-16.3-3.3-18-3.6-1.6-.3-3.7-.8-4.5-1.1-.8-.3-2-.7-2.6-.8-2-.5-15.8-3.6-17.9-4.2-1.1-.2-2.9-.6-4-.8-1.1-.2-3.2-.8-4.7-1.4-1.6-.6-2.8-.8-2.8-.5 0 .2-.8 0-1.7-.5-1-.5-3.1-1.1-4.8-1.4-2.6-.5-11.7-2.9-16.5-4.4-.8-.2-1.7-.5-2-.5-.3 0-1.6-.5-3-1s-3.2-1.1-4-1.3c-.8-.2-4.2-1.1-7.5-2-13.5-3.6-24.9-3.8-35.6-.5-4.1 1.3-7.7 2.3-8.1 2.2-.5-.1-.8.2-.8.7 0 .5-1.1 1.2-2.4 1.5-1.4.3-5.3 1.9-8.8 3.5-11.7 5.3-29.5 13.1-30.1 13.1-.3 0-2.7 1-5.4 2.2-2.6 1.1-5.2 2.2-5.8 2.3-.5.2-4.4 1.6-8.5 3.3-7.6 3-39.7 13.9-43.4 14.7-1.2.2-6.1 1.6-11.1 2.9-10.3 3-37.4 9.3-42.5 10-1.9.3-4.6.7-6 1-4.7 1-7.5 1.5-12 2.2-2.5.4-5.6.8-7 1-3.6.6-11.8 1.5-16.7 1.9-2.3.2-4.6.6-5.1.9-2 1.2-3.1-2.2-2.8-8.8.2-5 .7-7.2 1.9-8.1 1-.7 1.7-1.6 1.8-2.1 0-.5 2.4-2.7 5.2-4.9 2.9-2.2 7.9-6.1 11.3-8.6 4.9-3.8 7.1-4.8 11.5-5.4 9.7-1.1 17.4-2.2 20.4-2.8 5.7-1.3 10.5-2.8 10.9-3.6.5-.7-5.5-9.7-8.9-13.2-.8-.9-1.5-1.9-1.5-2.4 0-.4-.8-1.4-1.7-2.1-1.6-1.1-1.5-1.3 1.2-2.5 1.7-.6 4.4-1.7 6-2.4 1.7-.7 5.5-2.3 8.5-3.5 3-1.2 6.9-2.8 8.5-3.5 1.7-.7 5.3-2.1 8-3.1 2.8-1 5.3-2.3 5.7-2.8.4-.6.8-.8.8-.4s2.4-.2 5.3-1.3c2.8-1.2 8-3 11.5-4.2 3.4-1.1 6.2-2.4 6.2-2.8 0-.8-9.3-7.5-9.7-7.1-.2.1-3.3-1.2-7-2.9-10.2-4.7-13.3-5.8-25.7-9.4-5-1.5-6-2.2-7.2-5.1-4.4-10.5-19.5-18.9-43.9-24.5-2.2-.5-5.1-1.2-6.5-1.5-1.4-.4-8.3-1.6-15.5-2.8-14.6-2.5-35.7-2.8-43.5-.6-2.5.7-5.2 1.3-6 1.5-4.9 1-18.2 7.6-21 10.5-.3.3-1.2.7-2 .8-.8.2-2.2.6-3 .8-18.2 4.7-19.8 5.1-25 5.8-1.9.3-4.7.8-6.2 1.1-3.7.7-8.1 1.3-15.3 2-3.3.4-7.1.8-8.5 1.1-7.9 1.4-28.8 1.8-55.4 1.1-3.9-.1-7.1.2-7.3.8-.2.8 4.6 4.7 16.5 13.2 3 2.2 5.7 3.7 11 6.2 2.3 1.1 4.2 2.2 4.2 2.4 0 .4-5.6 0-12-.8-2.5-.4-6-.8-7.9-1.1-3.8-.5-7.4-1.1-11.1-1.9-1.4-.3-3.8-.8-5.4-1-1.5-.2-3.6-.7-4.6-1-1-.3-2.8-.8-3.9-1-1.2-.2-5.9-1.5-10.4-2.8-12.1-3.6-12.8-3.7-13.4-2.1-.9 2.3 5.6 11.9 13.3 19.8 7.2 7.3 19.7 16.4 28.7 20.7 5 2.4 5.8 3.4 3 3.6-1 .1-4.7.6-8.3 1.1l-6.5 1-12.5-6.6c-17.2-9-49.1-27.4-69.5-40-9.3-5.8-18.2-11.2-19.7-11.9-1.5-.8-3-1.9-3.4-2.4-.3-.6-1.6-1.4-2.7-2-2.3-.9-5.8-3-6.7-3.9-.3-.3-5.9-4.1-12.5-8.4-6.6-4.3-12.2-8.3-12.3-8.7-.2-.5-.9-.9-1.6-.9-.6 0-2.7-1.3-4.6-3-1.9-1.6-4.1-2.9-4.7-3-.7 0-1.3-.5-1.3-1 0-.6-.5-1-1.1-1-.6 0-1.6-.6-2.3-1.3-.8-.6-2.4-1.9-3.6-2.7-1.3-.8-3.5-2.4-4.9-3.6-1.4-1.1-4.8-3.6-7.6-5.4-2.7-1.9-5.2-3.6-5.5-4-.3-.3-4.8-3.8-10-7.7-5.2-3.9-10.5-7.9-11.8-9-1.3-1-4.2-3.3-6.5-5.1-2.3-1.7-4.7-3.6-5.3-4.1-.6-.5-3.5-2.6-6.5-4.7s-5.6-4.1-5.9-4.5c-1.2-1.5-19.9-10.6-23.5-11.4-15.4-3.4-35.2-4.5-116-6-40-.8-50.2-1.2-51.5-2-.5-.3-1-.1-1 .5s-.4.8-1 .5c-.9-.6-6.5-.8-40-2-14.2-.4-32.3-1.3-41-2-1.9-.1-8.2-.6-14-1-5.8-.4-12.5-.9-15-1.1-15.4-1.1-19.4-1.4-27.5-1.9-4.9-.4-10.8-.8-13-1-2.2-.1-8.5-.6-14-.9-5.5-.4-12.2-.9-15-1.2-2.7-.2-8.6-.6-13-.9-13.3-.8-26.7-1.8-41.5-3.1-3-.2-8.9-.7-13-1-4.1-.3-9.3-.7-11.5-.9-2.2-.2-7.6-.6-12-.9-4.4-.3-10.9-.8-14.5-1.1-6.7-.7-7.9-.8-26-2-5.8-.4-10.8-.9-11.1-1.1-.3-.2-1.5.4-2.7 1.2z"/></svg>